<svg width="107" height="74" viewBox="0 0 107 74" fill="none" xmlns="http://www.w3.org/2000/svg">
<path d="M7.56 34.36C6.264 34.36 5.076 34.036 3.996 33.388C2.94 32.716 2.088 31.84 1.44 30.76C0.816 29.656 0.504 28.444 0.504 27.124V25.468C0.504 25.348 0.564 25.288 0.684 25.288H4.716C4.812 25.288 4.86 25.348 4.86 25.468V27.124C4.86 27.916 5.124 28.6 5.652 29.176C6.18 29.728 6.816 30.004 7.56 30.004C8.304 30.004 8.94 29.716 9.468 29.14C9.996 28.564 10.26 27.892 10.26 27.124C10.26 26.236 9.684 25.468 8.532 24.82C8.148 24.604 7.548 24.268 6.732 23.812C5.916 23.356 5.148 22.924 4.428 22.516C3.108 21.748 2.124 20.788 1.476 19.636C0.852 18.46 0.54 17.14 0.54 15.676C0.54 14.332 0.864 13.132 1.512 12.076C2.16 10.996 3.012 10.144 4.068 9.52C5.148 8.896 6.312 8.584 7.56 8.584C8.832 8.584 9.996 8.908 11.052 9.556C12.132 10.18 12.984 11.032 13.608 12.112C14.256 13.168 14.58 14.356 14.58 15.676V18.628C14.58 18.724 14.532 18.772 14.436 18.772H10.404C10.308 18.772 10.26 18.724 10.26 18.628L10.224 15.676C10.224 14.836 9.96 14.152 9.432 13.624C8.904 13.096 8.28 12.832 7.56 12.832C6.816 12.832 6.18 13.12 5.652 13.696C5.124 14.248 4.86 14.908 4.86 15.676C4.86 16.468 5.028 17.128 5.364 17.656C5.7 18.184 6.312 18.688 7.2 19.168C7.32 19.24 7.548 19.372 7.884 19.564C8.244 19.732 8.628 19.936 9.036 20.176C9.444 20.392 9.804 20.584 10.116 20.752C10.452 20.92 10.656 21.028 10.728 21.076C11.928 21.748 12.876 22.576 13.572 23.56C14.268 24.52 14.616 25.708 14.616 27.124C14.616 28.492 14.292 29.728 13.644 30.832C13.02 31.912 12.168 32.776 11.088 33.424C10.032 34.048 8.856 34.36 7.56 34.36ZM20.5439 34C20.4479 34 20.3999 33.94 20.3999 33.82V13.3H15.7199C15.5999 13.3 15.5399 13.24 15.5399 13.12L15.5759 9.088C15.5759 8.992 15.6239 8.944 15.7199 8.944H29.3999C29.5199 8.944 29.5799 8.992 29.5799 9.088V13.12C29.5799 13.24 29.5319 13.3 29.4359 13.3H24.7199L24.7559 33.82C24.7559 33.94 24.7079 34 24.6119 34H20.5439ZM31.502 34C31.406 34 31.358 33.94 31.358 33.82L31.43 9.088C31.43 8.992 31.478 8.944 31.574 8.944H38.846C40.142 8.944 41.33 9.268 42.41 9.916C43.514 10.54 44.39 11.392 45.038 12.472C45.686 13.528 46.01 14.728 46.01 16.072C46.01 16.96 45.878 17.764 45.614 18.484C45.35 19.18 45.038 19.78 44.678 20.284C44.318 20.764 43.994 21.124 43.706 21.364C45.002 22.804 45.65 24.496 45.65 26.44L45.686 33.82C45.686 33.94 45.626 34 45.506 34H41.438C41.342 34 41.294 33.964 41.294 33.892V26.44C41.294 25.576 40.982 24.832 40.358 24.208C39.758 23.56 39.014 23.236 38.126 23.236H35.75L35.714 33.82C35.714 33.94 35.666 34 35.57 34H31.502ZM35.75 18.916H38.846C39.59 18.916 40.25 18.64 40.826 18.088C41.402 17.536 41.69 16.864 41.69 16.072C41.69 15.304 41.402 14.644 40.826 14.092C40.274 13.54 39.614 13.264 38.846 13.264H35.75V18.916ZM48.8692 34C48.7732 34 48.7252 33.94 48.7252 33.82L48.7612 9.088C48.7612 8.992 48.8092 8.944 48.9052 8.944H60.4612C60.5572 8.944 60.6052 9.004 60.6052 9.124V13.156C60.6052 13.252 60.5572 13.3 60.4612 13.3H53.0812V18.916H60.4612C60.5572 18.916 60.6052 18.964 60.6052 19.06L60.6412 23.128C60.6412 23.224 60.5932 23.272 60.4972 23.272H53.0812V29.572H60.4972C60.5932 29.572 60.6412 29.632 60.6412 29.752V33.856C60.6412 33.952 60.5932 34 60.4972 34H48.8692ZM63.9863 34C63.8903 34 63.8423 33.94 63.8423 33.82L63.8783 9.088C63.8783 8.992 63.9263 8.944 64.0223 8.944H75.5783C75.6743 8.944 75.7223 9.004 75.7223 9.124V13.156C75.7223 13.252 75.6743 13.3 75.5783 13.3H68.1983V18.916H75.5783C75.6743 18.916 75.7223 18.964 75.7223 19.06L75.7583 23.128C75.7583 23.224 75.7103 23.272 75.6143 23.272H68.1983V29.572H75.6143C75.7103 29.572 75.7583 29.632 75.7583 29.752V33.856C75.7583 33.952 75.7103 34 75.6143 34H63.9863ZM82.5595 34C82.4635 34 82.4155 33.94 82.4155 33.82V13.3H77.7355C77.6155 13.3 77.5555 13.24 77.5555 13.12L77.5915 9.088C77.5915 8.992 77.6395 8.944 77.7355 8.944H91.4155C91.5355 8.944 91.5955 8.992 91.5955 9.088V13.12C91.5955 13.24 91.5475 13.3 91.4515 13.3H86.7355L86.7715 33.82C86.7715 33.94 86.7235 34 86.6275 34H82.5595ZM96.9736 34C96.8776 34 96.8296 33.94 96.8296 33.82V13.3H92.1496C92.0296 13.3 91.9696 13.24 91.9696 13.12L92.0056 9.088C92.0056 8.992 92.0536 8.944 92.1496 8.944H105.83C105.95 8.944 106.01 8.992 106.01 9.088V13.12C106.01 13.24 105.962 13.3 105.866 13.3H101.15L101.186 33.82C101.186 33.94 101.138 34 101.042 34H96.9736Z" fill="#151515"/>
<path d="M23.752 63C23.656 63 23.596 62.94 23.572 62.82L19.324 38.088C19.3 37.992 19.336 37.944 19.432 37.944H23.464C23.56 37.944 23.62 37.992 23.644 38.088L25.948 54.36L28.324 38.088C28.348 37.992 28.42 37.944 28.54 37.944H31.78C31.876 37.944 31.936 37.992 31.96 38.088L34.3 54.36L36.64 38.088C36.664 37.992 36.724 37.944 36.82 37.944H40.816C40.936 37.944 40.984 37.992 40.96 38.088L36.676 62.82C36.652 62.868 36.616 62.916 36.568 62.964C36.52 62.988 36.496 63 36.496 63H32.14C32.068 63 32.008 62.94 31.96 62.82L30.124 49.896L28.288 62.82C28.264 62.94 28.204 63 28.108 63H23.752ZM43.2246 63C43.1286 63 43.0806 62.94 43.0806 62.82L43.1166 38.088C43.1166 37.992 43.1646 37.944 43.2606 37.944H54.8166C54.9126 37.944 54.9606 38.004 54.9606 38.124V42.156C54.9606 42.252 54.9126 42.3 54.8166 42.3H47.4366V47.916H54.8166C54.9126 47.916 54.9606 47.964 54.9606 48.06L54.9966 52.128C54.9966 52.224 54.9486 52.272 54.8526 52.272H47.4366V58.572H54.8526C54.9486 58.572 54.9966 58.632 54.9966 58.752V62.856C54.9966 62.952 54.9486 63 54.8526 63H43.2246ZM56.6223 62.82L61.0863 38.088C61.1103 37.992 61.1703 37.944 61.2663 37.944H66.4863C66.5823 37.944 66.6423 37.992 66.6663 38.088L70.9503 62.82C70.9743 62.94 70.9263 63 70.8063 63H66.8103C66.7143 63 66.6543 62.94 66.6303 62.82L66.2343 60.192H61.3383L60.9423 62.82C60.9183 62.94 60.8583 63 60.7623 63H56.7663C56.6703 63 56.6223 62.94 56.6223 62.82ZM62.0583 56.34H65.5143L64.0383 46.224L63.8223 44.892L63.6783 46.224L62.0583 56.34ZM73.3535 63C73.2575 63 73.2095 62.94 73.2095 62.82L73.2815 38.088C73.2815 37.992 73.3295 37.944 73.4255 37.944H80.6975C81.9935 37.944 83.1815 38.268 84.2615 38.916C85.3655 39.54 86.2415 40.392 86.8895 41.472C87.5375 42.528 87.8615 43.728 87.8615 45.072C87.8615 45.96 87.7295 46.764 87.4655 47.484C87.2015 48.18 86.8895 48.78 86.5295 49.284C86.1695 49.764 85.8455 50.124 85.5575 50.364C86.8535 51.804 87.5015 53.496 87.5015 55.44L87.5375 62.82C87.5375 62.94 87.4775 63 87.3575 63H83.2895C83.1935 63 83.1455 62.964 83.1455 62.892V55.44C83.1455 54.576 82.8335 53.832 82.2095 53.208C81.6095 52.56 80.8655 52.236 79.9775 52.236H77.6015L77.5655 62.82C77.5655 62.94 77.5175 63 77.4215 63H73.3535ZM77.6015 47.916H80.6975C81.4415 47.916 82.1015 47.64 82.6775 47.088C83.2535 46.536 83.5415 45.864 83.5415 45.072C83.5415 44.304 83.2535 43.644 82.6775 43.092C82.1255 42.54 81.4655 42.264 80.6975 42.264H77.6015V47.916ZM90.7207 63C90.6247 63 90.5767 62.94 90.5767 62.82L90.6487 38.088C90.6487 37.992 90.6967 37.944 90.7927 37.944H98.0647C99.3607 37.944 100.549 38.268 101.629 38.916C102.733 39.54 103.609 40.392 104.257 41.472C104.905 42.528 105.229 43.728 105.229 45.072C105.229 45.96 105.097 46.764 104.833 47.484C104.569 48.18 104.257 48.78 103.897 49.284C103.537 49.764 103.213 50.124 102.925 50.364C104.221 51.804 104.869 53.496 104.869 55.44L104.905 62.82C104.905 62.94 104.845 63 104.725 63H100.657C100.561 63 100.513 62.964 100.513 62.892V55.44C100.513 54.576 100.201 53.832 99.5767 53.208C98.9767 52.56 98.2327 52.236 97.3447 52.236H94.9687L94.9327 62.82C94.9327 62.94 94.8847 63 94.7887 63H90.7207ZM94.9687 47.916H98.0647C98.8087 47.916 99.4687 47.64 100.045 47.088C100.621 46.536 100.909 45.864 100.909 45.072C100.909 44.304 100.621 43.644 100.045 43.092C99.4927 42.54 98.8327 42.264 98.0647 42.264H94.9687V47.916Z" fill="#151515"/>
<path d="M0 38H15V63H5C2.23858 63 0 60.7614 0 58V38Z" fill="#151515"/>
</svg>
